<svg width="35" height="21" viewBox="0 0 35 21" fill="none" xmlns="http://www.w3.org/2000/svg">
<path d="M34.6233 10.8462C34.6233 16.4335 30.1105 21.0001 24.4695 21.0001C18.8822 21.0001 14.3156 16.4335 14.3156 10.8462C14.3156 5.25893 18.8285 0.692383 24.4158 0.692383C30.1105 0.692383 34.6233 5.25893 34.6233 10.8462Z" fill="#FFB600"/>
<path d="M24.4695 0.692383C30.0568 0.692383 34.6233 5.25893 34.6233 10.8462C34.6233 16.4335 30.1105 21.0001 24.4695 21.0001C18.8822 21.0001 14.3156 16.4335 14.3156 10.8462" fill="#F7981D"/>
<path d="M24.4693 0.692383C30.0566 0.692383 34.6232 5.25893 34.6232 10.8462C34.6232 16.4335 30.1104 21.0001 24.4693 21.0001" fill="#FF8500"/>
<path d="M10.8238 0.692383C5.29017 0.746107 0.777344 5.25893 0.777344 10.8462C0.777344 16.4335 5.29017 21.0001 10.9312 21.0001C13.5637 21.0001 15.9275 19.9793 17.7542 18.3676C18.1302 18.0453 18.4526 17.6692 18.7749 17.2931H16.6797C16.4111 16.9708 16.1424 16.5947 15.9275 16.2724H19.5271C19.742 15.95 19.9568 15.574 20.118 15.1979H15.3366C15.1754 14.8755 15.0142 14.4995 14.9068 14.1234H20.4941C20.8164 13.1027 21.0313 12.0282 21.0313 10.9C21.0313 10.1478 20.9239 9.44941 20.8164 8.751H14.5844C14.6382 8.37493 14.7456 8.05259 14.8531 7.67652H20.4404C20.3329 7.30045 20.1717 6.92438 20.0106 6.60203H15.2829C15.444 6.22597 15.6589 5.90362 15.8738 5.52755H19.4733C19.2584 5.15148 18.9898 4.77542 18.6675 4.45307H16.6797C17.002 4.077 17.3244 3.75466 17.7004 3.43231C15.9275 1.76687 13.51 0.799831 10.8775 0.799831C10.8775 0.692383 10.8775 0.692383 10.8238 0.692383Z" fill="#FF5050"/>
<path d="M0.777344 10.8462C0.777344 16.4335 5.29017 21.0001 10.9312 21.0001C13.5637 21.0001 15.9275 19.9793 17.7542 18.3676C18.1302 18.0452 18.4526 17.6692 18.7749 17.2931H16.6797C16.4111 16.9708 16.1424 16.5947 15.9275 16.2723H19.5271C19.742 15.95 19.9568 15.5739 20.118 15.1979H15.3366C15.1754 14.8755 15.0142 14.4995 14.9068 14.1234H20.4941C20.8164 13.1026 21.0313 12.0281 21.0313 10.8999C21.0313 10.1478 20.9239 9.44939 20.8164 8.75097H14.5844C14.6382 8.3749 14.7456 8.05256 14.8531 7.67649H20.4404C20.3329 7.30042 20.1717 6.92435 20.0106 6.60201H15.2829C15.444 6.22594 15.6589 5.90359 15.8738 5.52753H19.4733C19.2584 5.15146 18.9898 4.77539 18.6675 4.45304H16.6797C17.002 4.07698 17.3244 3.75463 17.7004 3.43229C15.9275 1.76684 13.51 0.799805 10.8775 0.799805H10.8238" fill="#E52836"/>
<path d="M10.9317 21.0001C13.5641 21.0001 15.928 19.9793 17.7546 18.3676C18.1307 18.0452 18.453 17.6692 18.7754 17.2931H16.6801C16.4115 16.9708 16.1429 16.5947 15.928 16.2723H19.5275C19.7424 15.95 19.9573 15.5739 20.1185 15.1979H15.337C15.1759 14.8755 15.0147 14.4995 14.9072 14.1234H20.4946C20.8169 13.1026 21.0318 12.0281 21.0318 10.8999C21.0318 10.1478 20.9243 9.44939 20.8169 8.75097H14.5849C14.6386 8.3749 14.7461 8.05256 14.8535 7.67649H20.4408C20.3334 7.30042 20.1722 6.92435 20.011 6.60201H15.2833C15.4445 6.22594 15.6594 5.90359 15.8743 5.52753H19.4738C19.2589 5.15146 18.9903 4.77539 18.6679 4.45304H16.6801C17.0025 4.07698 17.3248 3.75463 17.7009 3.43229C15.928 1.76684 13.5104 0.799805 10.8779 0.799805H10.8242" fill="#CB2026"/>
<path d="M14.5297 13.424L14.6908 12.5107C14.6371 12.5107 14.5297 12.5644 14.4222 12.5644C14.0461 12.5644 13.9924 12.3495 14.0461 12.2421L14.3685 10.3617H14.9595L15.1206 9.34098H14.5834L14.6908 8.69629H13.6164C13.6164 8.69629 12.9717 12.2421 12.9717 12.6719C12.9717 13.3166 13.3477 13.5852 13.8312 13.5852C14.1536 13.5852 14.4222 13.4777 14.5297 13.424Z" fill="white"/>
<path d="M14.9092 11.7047C14.9092 13.2089 15.9299 13.585 16.7895 13.585C17.5954 13.585 17.9177 13.4238 17.9177 13.4238L18.1326 12.4031C18.1326 12.4031 17.5416 12.6717 17.0044 12.6717C15.8225 12.6717 16.0374 11.8121 16.0374 11.8121H18.2401C18.2401 11.8121 18.4012 11.1137 18.4012 10.8451C18.4012 10.1467 18.0252 9.28707 16.8432 9.28707C15.715 9.17962 14.9092 10.3616 14.9092 11.7047ZM16.7895 10.1467C17.3805 10.1467 17.273 10.8451 17.273 10.8988H16.0911C16.0911 10.8451 16.1985 10.1467 16.7895 10.1467Z" fill="white"/>
<path d="M23.6179 13.4241L23.8328 12.2422C23.8328 12.2422 23.2956 12.5108 22.9195 12.5108C22.1673 12.5108 21.845 11.9199 21.845 11.2752C21.845 9.98579 22.4897 9.28737 23.2418 9.28737C23.7791 9.28737 24.2089 9.60972 24.2089 9.60972L24.37 8.48151C24.37 8.48151 23.7253 8.21289 23.1344 8.21289C21.8987 8.21289 20.6631 9.28737 20.6631 11.3289C20.6631 12.672 21.3078 13.5853 22.5971 13.5853C23.0269 13.5853 23.6179 13.4241 23.6179 13.4241Z" fill="white"/>
<path d="M8.62278 9.17969C7.87065 9.17969 7.33341 9.39458 7.33341 9.39458L7.17223 10.3079C7.17223 10.3079 7.65575 10.093 8.35416 10.093C8.73023 10.093 9.05258 10.1467 9.05258 10.4691C9.05258 10.684 8.99885 10.7377 8.99885 10.7377C8.99885 10.7377 8.67651 10.7377 8.51534 10.7377C7.60203 10.7377 6.58127 11.1138 6.58127 12.3494C6.58127 13.3164 7.22596 13.5313 7.60203 13.5313C8.35416 13.5313 8.67651 13.0478 8.73023 13.0478L8.67651 13.4776H9.64354L10.0733 10.5228C10.0733 9.23341 8.99885 9.17969 8.62278 9.17969ZM8.83768 11.5973C8.83768 11.7584 8.73023 12.618 8.08554 12.618C7.7632 12.618 7.65575 12.3494 7.65575 12.1882C7.65575 11.9196 7.81692 11.5435 8.62278 11.5435C8.78396 11.5973 8.83768 11.5973 8.83768 11.5973Z" fill="white"/>
<path d="M11.094 13.5314C11.3627 13.5314 12.7058 13.5851 12.7058 12.1345C12.7058 10.7914 11.4164 11.06 11.4164 10.5228C11.4164 10.2542 11.6313 10.1467 12.0073 10.1467C12.1685 10.1467 12.7595 10.2005 12.7595 10.2005L12.9207 9.23343C12.9207 9.23343 12.5446 9.12598 11.8999 9.12598C11.094 9.12598 10.2882 9.44832 10.2882 10.5228C10.2882 11.7585 11.6313 11.651 11.6313 12.1345C11.6313 12.4569 11.2552 12.5106 10.9866 12.5106C10.5031 12.5106 10.0196 12.3494 10.0196 12.3494L9.85838 13.3165C9.91211 13.4239 10.1807 13.5314 11.094 13.5314Z" fill="white"/>
<path d="M32.5339 8.32031L32.319 9.77086C32.319 9.77086 31.8892 9.23362 31.2983 9.23362C30.3312 9.23362 29.4717 10.4156 29.4717 11.8124C29.4717 12.672 29.9015 13.5853 30.8148 13.5853C31.4595 13.5853 31.8355 13.1555 31.8355 13.1555L31.7818 13.5316H32.8563L33.6621 8.37404L32.5339 8.32031ZM32.0504 11.1677C32.0504 11.7587 31.7818 12.5108 31.1908 12.5108C30.8148 12.5108 30.5999 12.1884 30.5999 11.6512C30.5999 10.7916 30.9759 10.2544 31.4595 10.2544C31.8355 10.2544 32.0504 10.523 32.0504 11.1677Z" fill="white"/>
<path d="M2.76977 13.4778L3.41446 9.60969L3.5219 13.4778H4.27404L5.67087 9.60969L5.0799 13.4778H6.20811L7.06769 8.32031H5.2948L4.22032 11.49L4.16659 8.32031H2.60859L1.74901 13.4778H2.76977Z" fill="white"/>
<path d="M19.4241 13.4776C19.7464 11.7047 19.8002 10.2541 20.5523 10.5228C20.6598 9.82435 20.8209 9.55573 20.9284 9.28711C20.9284 9.28711 20.8747 9.28711 20.7135 9.28711C20.23 9.28711 19.8539 9.9318 19.8539 9.9318L19.9613 9.34083H18.9406L18.2422 13.5313H19.4241V13.4776Z" fill="white"/>
<path d="M26.0877 9.17969C25.3356 9.17969 24.7983 9.39458 24.7983 9.39458L24.6372 10.3079C24.6372 10.3079 25.1207 10.093 25.8191 10.093C26.1952 10.093 26.5175 10.1467 26.5175 10.4691C26.5175 10.684 26.4638 10.7377 26.4638 10.7377C26.4638 10.7377 26.1414 10.7377 25.9803 10.7377C25.0669 10.7377 24.0462 11.1138 24.0462 12.3494C24.0462 13.3164 24.6909 13.5313 25.0669 13.5313C25.8191 13.5313 26.1414 13.0478 26.1952 13.0478L26.1414 13.4776H27.1085L27.5383 10.5228C27.592 9.23341 26.4638 9.17969 26.0877 9.17969ZM26.3563 11.5973C26.3563 11.7584 26.2489 12.618 25.6042 12.618C25.2818 12.618 25.1744 12.3494 25.1744 12.1882C25.1744 11.9196 25.3356 11.5435 26.1414 11.5435C26.3026 11.5973 26.3026 11.5973 26.3563 11.5973Z" fill="white"/>
<path d="M28.4474 13.4776C28.7698 11.7047 28.8235 10.2541 29.5756 10.5228C29.6831 9.82435 29.8442 9.55573 29.9517 9.28711C29.9517 9.28711 29.898 9.28711 29.7368 9.28711C29.2533 9.28711 28.8772 9.9318 28.8772 9.9318L28.9847 9.34083H27.9639L27.2655 13.5313H28.4474V13.4776Z" fill="white"/>
<path d="M12.8662 12.6719C12.8662 13.3166 13.2423 13.5852 13.7258 13.5852C14.1019 13.5852 14.4242 13.4777 14.5316 13.424L14.6928 12.5107C14.6391 12.5107 14.5316 12.5644 14.4242 12.5644C14.0481 12.5644 13.9944 12.3495 14.0481 12.2421L14.3705 10.3617H14.9614L15.1226 9.34098H14.5854L14.6928 8.69629" fill="#DCE5E5"/>
<path d="M15.4443 11.7047C15.4443 13.2089 15.9278 13.585 16.7874 13.585C17.5933 13.585 17.9156 13.4238 17.9156 13.4238L18.1305 12.4031C18.1305 12.4031 17.5396 12.6717 17.0023 12.6717C15.8204 12.6717 16.0353 11.8121 16.0353 11.8121H18.238C18.238 11.8121 18.3991 11.1137 18.3991 10.8451C18.3991 10.1467 18.0231 9.28707 16.8411 9.28707C15.7129 9.17962 15.4443 10.3616 15.4443 11.7047ZM16.7874 10.1467C17.3784 10.1467 17.4858 10.8451 17.4858 10.8988H16.089C16.089 10.8451 16.1965 10.1467 16.7874 10.1467Z" fill="#DCE5E5"/>
<path d="M23.6158 13.4241L23.8307 12.2422C23.8307 12.2422 23.2935 12.5108 22.9174 12.5108C22.1653 12.5108 21.8429 11.9199 21.8429 11.2752C21.8429 9.98579 22.4876 9.28737 23.2397 9.28737C23.777 9.28737 24.2068 9.60972 24.2068 9.60972L24.3679 8.48151C24.3679 8.48151 23.7233 8.21289 23.1323 8.21289C21.8966 8.21289 21.1982 9.28737 21.1982 11.3289C21.1982 12.672 21.3057 13.5853 22.5951 13.5853C23.0248 13.5853 23.6158 13.4241 23.6158 13.4241Z" fill="#DCE5E5"/>
<path d="M7.17223 10.3616C7.17223 10.3616 7.65575 10.1467 8.35416 10.1467C8.73023 10.1467 9.05258 10.2004 9.05258 10.5228C9.05258 10.7377 8.99885 10.7914 8.99885 10.7914C8.99885 10.7914 8.67651 10.7914 8.51534 10.7914C7.60203 10.7914 6.58127 11.1675 6.58127 12.4031C6.58127 13.3701 7.22596 13.585 7.60203 13.585C8.35416 13.585 8.67651 13.1015 8.73023 13.1015L8.67651 13.5313H9.64354L10.0733 10.5765C10.0733 9.34083 8.99885 9.28711 8.56906 9.28711L7.17223 10.3616ZM9.37492 11.5972C9.37492 11.7584 8.73023 12.618 8.08554 12.618C7.7632 12.618 7.65575 12.3494 7.65575 12.1882C7.65575 11.9196 7.81692 11.5435 8.62278 11.5435C8.78396 11.5972 9.37492 11.5972 9.37492 11.5972Z" fill="#DCE5E5"/>
<path d="M9.91296 13.4239C9.91296 13.4239 10.2353 13.5314 11.1486 13.5314C11.4172 13.5314 12.7603 13.5851 12.7603 12.1345C12.7603 10.7914 11.471 11.06 11.471 10.5228C11.471 10.2542 11.6859 10.1467 12.0619 10.1467C12.2231 10.1467 12.8141 10.2005 12.8141 10.2005L12.9752 9.23343C12.9752 9.23343 12.5992 9.12598 11.9545 9.12598C11.1486 9.12598 10.88 9.44832 10.88 10.5228C10.88 11.7585 11.6859 11.651 11.6859 12.1345C11.6859 12.4569 11.3098 12.5106 11.0412 12.5106" fill="#DCE5E5"/>
<path d="M32.3163 9.77085C32.3163 9.77085 31.8865 9.23361 31.2955 9.23361C30.3285 9.23361 30.0061 10.4155 30.0061 11.8124C30.0061 12.672 29.8987 13.5853 30.812 13.5853C31.4567 13.5853 31.8327 13.1555 31.8327 13.1555L31.779 13.5315H32.8535L33.6594 8.37402L32.3163 9.77085ZM32.2625 11.1677C32.2625 11.7586 31.779 12.5108 31.1881 12.5108C30.812 12.5108 30.5971 12.1884 30.5971 11.6512C30.5971 10.7916 30.9732 10.2544 31.4567 10.2544C31.8327 10.2544 32.2625 10.523 32.2625 11.1677Z" fill="#DCE5E5"/>
<path d="M2.76977 13.4778L3.41446 9.60969L3.5219 13.4778H4.27404L5.67087 9.60969L5.0799 13.4778H6.20811L7.06769 8.32031H5.72459L4.22032 11.49L4.16659 8.32031H3.57563L1.74901 13.4778H2.76977Z" fill="#DCE5E5"/>
<path d="M18.2951 13.4776H19.4233C19.7456 11.7047 19.7993 10.2541 20.5515 10.5228C20.6589 9.82435 20.8201 9.55573 20.9275 9.28711C20.9275 9.28711 20.8738 9.28711 20.7126 9.28711C20.2291 9.28711 19.8531 9.9318 19.8531 9.9318L19.9605 9.34083" fill="#DCE5E5"/>
<path d="M24.6372 10.3616C24.6372 10.3616 25.1207 10.1467 25.8191 10.1467C26.1952 10.1467 26.5175 10.2004 26.5175 10.5228C26.5175 10.7377 26.4638 10.7914 26.4638 10.7914C26.4638 10.7914 26.1414 10.7914 25.9803 10.7914C25.0669 10.7914 24.0462 11.1675 24.0462 12.4031C24.0462 13.3701 24.6909 13.585 25.0669 13.585C25.8191 13.585 26.1414 13.1015 26.1952 13.1015L26.1414 13.5313H27.1085L27.5383 10.5765C27.5383 9.34083 26.4638 9.28711 26.034 9.28711L24.6372 10.3616ZM26.8398 11.5972C26.8398 11.7584 26.1952 12.618 25.5505 12.618C25.2281 12.618 25.1207 12.3494 25.1207 12.1882C25.1207 11.9196 25.2818 11.5435 26.0877 11.5435C26.3026 11.5972 26.8398 11.5972 26.8398 11.5972Z" fill="#DCE5E5"/>
<path d="M27.3232 13.4776H28.4514C28.7738 11.7047 28.8275 10.2541 29.5796 10.5228C29.6871 9.82435 29.8483 9.55573 29.9557 9.28711C29.9557 9.28711 29.902 9.28711 29.7408 9.28711C29.2573 9.28711 28.8812 9.9318 28.8812 9.9318L28.9887 9.34083" fill="#DCE5E5"/>
</svg>
