<svg width="30" height="30" viewBox="0 0 30 30" fill="none" xmlns="http://www.w3.org/2000/svg">
<rect width="30" height="30" rx="3" fill="white"/>
<path d="M19.5391 19.9219H11.7461C11.0676 19.9219 10.5156 19.3699 10.5156 18.6914C10.5156 18.0129 11.0676 17.4609 11.7461 17.4609H12.9766L12.2372 18.2812H11.7461C11.5198 18.2812 11.3359 18.4651 11.3359 18.6914C11.3359 18.9177 11.5198 19.1016 11.7461 19.1016H19.5391V19.9219Z" fill="#F9C2D2"/>
<path d="M15.8477 19.1016H19.5391V19.9219H15.8477V19.1016Z" fill="#F98AAB"/>
<path opacity="0.5" d="M10.9635 12.5392L10.5969 10.8984H8V10.0781H11.2546L11.9652 13.26L10.9635 12.5392Z" fill="#F98AAB"/>
<path d="M17.6098 12.6797L17.4872 12.5391H10.9652L12.2381 18.2812H19.4475L20.893 12.6873C20.6123 12.7574 18.9511 14.2207 17.6098 12.6797ZM19.6734 14.128L19.4481 15H17.5246L17.6289 13.7487C18.2304 14.1153 18.9697 14.2611 19.6734 14.128ZM14.9953 15L14.8586 13.3594H16.8386L16.7018 15H14.9953ZM16.6335 15.8203L16.4968 17.4609H15.2004L15.0637 15.8203H16.6335ZM14.0359 13.3594L14.1726 15H12.3511L11.9874 13.3594H14.0359ZM12.5329 15.8203H14.2409L14.3777 17.4609H12.8966L12.5329 15.8203ZM17.3196 17.4609L17.4563 15.8203H19.2362L18.8122 17.4609H17.3196Z" fill="#F9C2D2"/>
<path d="M17.6088 12.6797L17.4863 12.5391H15.8477V13.3594H16.8376L16.7009 15H15.8477V15.8203H16.6326L16.4958 17.4609H15.8477V18.2812H19.4465L20.8921 12.6873C20.6113 12.7574 18.9502 14.2206 17.6088 12.6797ZM18.8113 17.4609H17.3186L17.4554 15.8203H19.2352L18.8113 17.4609ZM19.6724 14.128L19.4471 15H17.5237L17.628 13.7487C18.2295 14.1153 18.9688 14.2611 19.6724 14.128Z" fill="#F98AAB"/>
<path d="M13.3867 21.5625C12.7082 21.5625 12.1562 21.0105 12.1562 20.332C12.1562 19.6535 12.7082 19.1016 13.3867 19.1016C14.0652 19.1016 14.6172 19.6535 14.6172 20.332C14.6172 21.0105 14.0652 21.5625 13.3867 21.5625Z" fill="#665151"/>
<path d="M17.4883 21.5625C16.8098 21.5625 16.2578 21.0105 16.2578 20.332C16.2578 19.6535 16.8098 19.1016 17.4883 19.1016C18.1668 19.1016 18.7188 19.6535 18.7188 20.332C18.7188 21.0105 18.1668 21.5625 17.4883 21.5625Z" fill="#4D3535"/>
<path d="M19.1289 14.1797C17.502 14.1797 16.2578 12.8505 16.2578 11.3086C16.2578 9.72564 17.5459 8.4375 19.1289 8.4375C20.7119 8.4375 22 9.72564 22 11.3086C22 12.9301 20.6829 14.1797 19.1289 14.1797Z" fill="#F9C2D2"/>
<path d="M13.3867 20.7422C13.6132 20.7422 13.7969 20.5586 13.7969 20.332C13.7969 20.1055 13.6132 19.9219 13.3867 19.9219C13.1602 19.9219 12.9766 20.1055 12.9766 20.332C12.9766 20.5586 13.1602 20.7422 13.3867 20.7422Z" fill="#FFF7E6"/>
<path d="M17.4883 20.7422C17.7148 20.7422 17.8984 20.5586 17.8984 20.332C17.8984 20.1055 17.7148 19.9219 17.4883 19.9219C17.2618 19.9219 17.0781 20.1055 17.0781 20.332C17.0781 20.5586 17.2618 20.7422 17.4883 20.7422Z" fill="#FFEACC"/>
<path d="M22 11.3086C22 9.72564 20.7119 8.4375 19.1289 8.4375V14.1797C20.6829 14.1797 22 12.9301 22 11.3086Z" fill="#F98AAB"/>
<path d="M20.3594 10.8984H19.5391V10.0781H18.7188V10.8984H17.8984V11.7188H18.7188V12.5391H19.5391V11.7188H20.3594V10.8984Z" fill="white"/>
<path d="M19.1289 10.0781V12.5391H19.5391V11.7188H20.3594V10.8984H19.5391V10.0781H19.1289Z" fill="white"/>
</svg>
