<svg width="49" height="16" viewBox="0 0 49 16" fill="none" xmlns="http://www.w3.org/2000/svg">
<path d="M19.9922 0.384277L17.6141 15.183H21.4152L23.7919 0.384277C23.7919 0.384277 19.9922 0.384277 19.9922 0.384277ZM31.4577 6.41244C30.1294 5.75648 29.3151 5.31377 29.3151 4.64287C29.3314 4.03288 30.0037 3.40794 31.5052 3.40794C32.7401 3.37692 33.6478 3.66714 34.3364 3.95589L34.6813 4.10985L35.1981 1.0136C34.4473 0.72338 33.2569 0.403603 31.7864 0.403603C28.0328 0.403603 25.3896 2.35523 25.3732 5.14649C25.3422 7.20627 27.2656 8.34928 28.705 9.03496C30.1754 9.73834 30.6759 10.1944 30.6759 10.8193C30.6597 11.7788 29.4869 12.2215 28.3927 12.2215C26.8764 12.2215 26.062 11.9935 24.8256 11.4589L24.3251 11.2308L23.7935 14.4486C24.6864 14.8455 26.3285 15.1948 28.0329 15.2127C32.0221 15.2127 34.6178 13.2906 34.6505 10.3158C34.6634 8.684 33.6492 7.43413 31.4577 6.41244ZM44.9429 0.430075H42.0021C41.0958 0.430075 40.4072 0.690736 40.0149 1.62067L34.3687 15.183H38.3578L39.4565 12.2467H43.9196L44.4896 15.1948H48.008L44.9429 0.430075ZM40.5628 9.28344C40.6398 9.29091 42.094 4.49021 42.094 4.49021L43.2519 9.28344C43.2519 9.28344 41.3136 9.28344 40.5628 9.28344ZM14.438 0.384277L10.7139 10.4386L10.3082 8.45582C9.61957 6.16802 7.46072 3.68192 5.05144 2.44699L8.46162 15.1682H12.4834L18.4598 0.385901H14.438V0.384277Z" fill="#2394BC"/>
<path d="M9.05643 2.2936C8.76622 1.16521 7.84067 0.40418 6.58365 0.387939H0.68574L0.625 0.661754C5.22578 1.79599 9.08745 5.28608 10.3402 8.56894L9.05643 2.2936Z" fill="#EFC75E"/>
</svg>
